<svg id="visual" viewBox="0 0 960 540" width="960" height="540" xmlns="http://www.w3.org/2000/svg" xmlns:xlink="http://www.w3.org/1999/xlink" version="1.1"><rect x="0" y="0" width="960" height="540" fill="#001220"></rect><defs><linearGradient id="grad1_0" x1="43.8%" y1="0%" x2="100%" y2="100%"><stop offset="14.444444444444446%" stop-color="#fbae3c" stop-opacity="1"></stop><stop offset="85.55555555555554%" stop-color="#fbae3c" stop-opacity="1"></stop></linearGradient></defs><defs><linearGradient id="grad1_1" x1="43.8%" y1="0%" x2="100%" y2="100%"><stop offset="14.444444444444446%" stop-color="#fbae3c" stop-opacity="1"></stop><stop offset="85.55555555555554%" stop-color="#e1685e" stop-opacity="1"></stop></linearGradient></defs><defs><linearGradient id="grad1_2" x1="43.8%" y1="0%" x2="100%" y2="100%"><stop offset="14.444444444444446%" stop-color="#96446e" stop-opacity="1"></stop><stop offset="85.55555555555554%" stop-color="#e1685e" stop-opacity="1"></stop></linearGradient></defs><defs><linearGradient id="grad1_3" x1="43.8%" y1="0%" x2="100%" y2="100%"><stop offset="14.444444444444446%" stop-color="#96446e" stop-opacity="1"></stop><stop offset="85.55555555555554%" stop-color="#3d3056" stop-opacity="1"></stop></linearGradient></defs><defs><linearGradient id="grad1_4" x1="43.8%" y1="0%" x2="100%" y2="100%"><stop offset="14.444444444444446%" stop-color="#001220" stop-opacity="1"></stop><stop offset="85.55555555555554%" stop-color="#3d3056" stop-opacity="1"></stop></linearGradient></defs><defs><linearGradient id="grad2_0" x1="0%" y1="0%" x2="56.3%" y2="100%"><stop offset="14.444444444444446%" stop-color="#fbae3c" stop-opacity="1"></stop><stop offset="85.55555555555554%" stop-color="#fbae3c" stop-opacity="1"></stop></linearGradient></defs><defs><linearGradient id="grad2_1" x1="0%" y1="0%" x2="56.3%" y2="100%"><stop offset="14.444444444444446%" stop-color="#e1685e" stop-opacity="1"></stop><stop offset="85.55555555555554%" stop-color="#fbae3c" stop-opacity="1"></stop></linearGradient></defs><defs><linearGradient id="grad2_2" x1="0%" y1="0%" x2="56.3%" y2="100%"><stop offset="14.444444444444446%" stop-color="#e1685e" stop-opacity="1"></stop><stop offset="85.55555555555554%" stop-color="#96446e" stop-opacity="1"></stop></linearGradient></defs><defs><linearGradient id="grad2_3" x1="0%" y1="0%" x2="56.3%" y2="100%"><stop offset="14.444444444444446%" stop-color="#3d3056" stop-opacity="1"></stop><stop offset="85.55555555555554%" stop-color="#96446e" stop-opacity="1"></stop></linearGradient></defs><defs><linearGradient id="grad2_4" x1="0%" y1="0%" x2="56.3%" y2="100%"><stop offset="14.444444444444446%" stop-color="#3d3056" stop-opacity="1"></stop><stop offset="85.55555555555554%" stop-color="#001220" stop-opacity="1"></stop></linearGradient></defs><g transform="translate(960, 0)"><path d="M0 405C-52.1 392.1 -104.2 379.3 -147.3 355.7C-190.5 332.1 -224.6 297.8 -264.5 264.5C-304.3 231.2 -349.8 198.9 -374.2 155C-398.5 111.1 -401.8 55.5 -405 0L0 0Z" fill="#18223c"></path><path d="M0 324C-41.7 313.7 -83.4 303.4 -117.9 284.6C-152.4 265.7 -179.7 238.2 -211.6 211.6C-243.4 184.9 -279.8 159.1 -299.3 124C-318.8 88.9 -321.4 44.4 -324 0L0 0Z" fill="#683a67"></path><path d="M0 243C-31.3 235.3 -62.5 227.6 -88.4 213.4C-114.3 199.3 -134.8 178.7 -158.7 158.7C-182.6 138.7 -209.9 119.3 -224.5 93C-239.1 66.6 -241.1 33.3 -243 0L0 0Z" fill="#c0526a"></path><path d="M0 162C-20.8 156.9 -41.7 151.7 -58.9 142.3C-76.2 132.8 -89.8 119.1 -105.8 105.8C-121.7 92.5 -139.9 79.6 -149.7 62C-159.4 44.4 -160.7 22.2 -162 0L0 0Z" fill="#f6884d"></path><path d="M0 81C-10.4 78.4 -20.8 75.9 -29.5 71.1C-38.1 66.4 -44.9 59.6 -52.9 52.9C-60.9 46.2 -70 39.8 -74.8 31C-79.7 22.2 -80.4 11.1 -81 0L0 0Z" fill="#fbae3c"></path></g><g transform="translate(0, 540)"><path d="M0 -405C52.4 -391.6 104.8 -378.1 146.2 -352.9C187.6 -327.7 218 -290.7 258.1 -258.1C298.2 -225.5 348.1 -197.3 374.2 -155C400.3 -112.7 402.6 -56.4 405 0L0 0Z" fill="#18223c"></path><path d="M0 -324C41.9 -313.3 83.8 -302.5 116.9 -282.3C150.1 -262.2 174.4 -232.6 206.5 -206.5C238.6 -180.4 278.5 -157.8 299.3 -124C320.2 -90.2 322.1 -45.1 324 0L0 0Z" fill="#683a67"></path><path d="M0 -243C31.4 -234.9 62.9 -226.9 87.7 -211.8C112.5 -196.6 130.8 -174.4 154.9 -154.9C178.9 -135.3 208.8 -118.4 224.5 -93C240.2 -67.6 241.6 -33.8 243 0L0 0Z" fill="#c0526a"></path><path d="M0 -162C21 -156.6 41.9 -151.3 58.5 -141.2C75 -131.1 87.2 -116.3 103.2 -103.2C119.3 -90.2 139.2 -78.9 149.7 -62C160.1 -45.1 161.1 -22.5 162 0L0 0Z" fill="#f6884d"></path><path d="M0 -81C10.5 -78.3 21 -75.6 29.2 -70.6C37.5 -65.5 43.6 -58.1 51.6 -51.6C59.6 -45.1 69.6 -39.5 74.8 -31C80.1 -22.5 80.5 -11.3 81 0L0 0Z" fill="#fbae3c"></path></g></svg>