<svg xmlns="http://www.w3.org/2000/svg" version="1.1" xmlns:xlink="http://www.w3.org/1999/xlink" xmlns:svgjs="http://svgjs.dev/svgjs" width="1000" height="623" viewBox="0 0 1000 623"><g transform="matrix(1,0,0,1,-0.6060606060606233,0.2522267206477409)"><svg viewBox="0 0 396 247" data-background-color="#001220" preserveAspectRatio="xMidYMid meet" height="623" width="1000" xmlns="http://www.w3.org/2000/svg" xmlns:xlink="http://www.w3.org/1999/xlink"><g id="tight-bounds" transform="matrix(1,0,0,1,0.2400000000000091,-0.09999999999999432)"><svg viewBox="0 0 395.52 247.2" height="247.2" width="395.52"><g><svg></svg></g><g><svg viewBox="0 0 395.52 247.2" height="247.2" width="395.52"><g transform="matrix(1,0,0,1,39.55199999999999,93.02679288513717)"><svg viewBox="0 0 316.416 61.14641422972566" height="61.14641422972566" width="316.416"><g><svg viewBox="0 0 316.416 61.14641422972566" height="61.14641422972566" width="316.416"><g><svg viewBox="0 0 316.416 61.14641422972566" height="61.14641422972566" width="316.416"><g id="textblocktransform"><svg viewBox="0 0 316.416 61.14641422972566" height="61.14641422972566" width="316.416" id="textblock"><g><svg viewBox="0 0 316.416 61.14641422972566" height="61.14641422972566" width="316.416"><g transform="matrix(1,0,0,1,0,0)"><svg width="316.416" viewBox="4 -32.04999923706055 165.83999633789062 32.04999923706055" height="61.14641422972566" data-palette-color="#ffffff"><path d="M27.2 0L4.5 0 4.5-25.4 4-29.4 27.2-29.4Q31.25-29.4 33.43-28.4 35.6-27.4 36.45-25.43 37.3-23.45 37.3-20.5L37.3-20.5 37.3-8.95Q37.3-5.95 36.48-3.98 35.65-2 33.48-1 31.3 0 27.2 0L27.2 0ZM11.1-24.6L11.1-4.8 26.8-4.8Q30.65-4.8 30.7-8.35L30.7-8.35 30.7-21.1Q30.7-22.55 29.85-23.58 29-24.6 26.8-24.6L26.8-24.6 11.1-24.6ZM59.45 0L49.4 0Q46.9 0 45.55-0.65 44.2-1.3 43.62-2.3 43.05-3.3 42.92-4.4 42.8-5.5 42.8-6.4L42.8-6.4 42.8-16Q42.8-16.75 42.92-17.82 43.05-18.9 43.62-19.95 44.2-21 45.57-21.7 46.95-22.4 49.4-22.4L49.4-22.4 60.15-22.4Q63.45-22.4 65.32-21.78 67.2-21.15 67.97-19.75 68.75-18.35 68.75-16L68.75-16 68.75-8.6 60-8.6Q55.5-8.6 52.67-8.8 49.85-9 48.9-9.05L48.9-9.05 48.9-6.3Q48.85-4.3 51.3-4.3L51.3-4.3 53.85-4.3Q56.55-4.3 59.12-4.38 61.7-4.45 63.85-4.58 66-4.7 67.3-4.8L67.3-4.8 69.3-1.55Q69.3 0 59.45 0L59.45 0ZM48.9-16.1L48.9-12.9 62.65-12.9 62.65-16.1Q62.65-17.1 62.42-17.5 62.2-17.9 61.1-18 60-18.1 57.35-18.1L57.35-18.1 51.3-18.1Q48.9-18.1 48.9-16.1L48.9-16.1ZM90.1 0L82.1 0 71.8-22.4 78.8-22.4 84.55-8.6 85.85-5 86.35-5 87.65-8.6 93.5-22.4 100.3-22.4 99.5-19.35 90.1 0ZM128.59 0L104.79 0 105.29-4 105.29-29.4 111.89-29.4 111.89-4.8 132.59-4.8 134.59-0.55Q134.59-0.35 133.24-0.18 131.89 0 128.59 0L128.59 0ZM141.64-25.55L141.64-25.55Q139.79-25.55 138.94-26.3 138.09-27.05 138.09-28.8L138.09-28.8Q138.09-30.6 138.92-31.33 139.74-32.05 141.64-32.05L141.64-32.05Q143.54-32.05 144.39-31.33 145.24-30.6 145.24-28.8L145.24-28.8Q145.24-27.1 144.39-26.33 143.54-25.55 141.64-25.55ZM144.69 0L138.59 0 138.59-22.4 144.69-22.4 144.69 0ZM161.49 0L159.94 0Q156.14 0 154.74-1.6 153.34-3.2 153.34-6.4L153.34-6.4 153.34-18.1 149.24-18.1 149.24-22.4 151.34-22.4Q152.29-22.4 152.71-22.7 153.14-23 153.34-23.9L153.34-23.9 154.34-29.25 159.44-29.25 159.44-22.4 169.84-22.4 169.84-18.1 159.44-18.1 159.44-6.35Q159.44-5.1 160.04-4.7 160.64-4.3 161.84-4.3L161.84-4.3 168.89-4.3 169.39-0.5Q168.34-0.35 166.19-0.18 164.04 0 161.49 0L161.49 0Z" opacity="1" transform="matrix(1,0,0,1,0,0)" fill="#ffffff" class="undefined-text-0" data-fill-palette-color="primary" id="text-0"></path></svg></g></svg></g></svg></g></svg></g></svg></g></svg></g><g mask="url(#1d3d4838-c3b1-4e98-ae8c-978620917744)"><g transform="matrix(4.162062612525548, 0, 0, 4.162062612525548, 112.35490196497409, 1)"><svg xmlns="http://www.w3.org/2000/svg" xmlns:xlink="http://www.w3.org/1999/xlink" version="1.0" x="0" y="0" viewBox="29.480093002319336 20.333499908447266 41.039794921875 58.9130973815918" enable-background="new 0 0 100 100" xml:space="preserve" height="58.9130973815918" width="41.039794921875" class="icon-none" data-fill-palette-color="accent" id="none"><g fill="#dcdcdc" data-fill-palette-color="accent"><g fill="#dcdcdc" data-fill-palette-color="accent"><path d="M57.627 58.314c0.197 0.253 0.492 0.385 0.79 0.386 0.215 0 0.432-0.069 0.614-0.211 0.435-0.34 0.514-0.968 0.175-1.404-0.215-0.275-0.445-0.539-0.686-0.793C64.725 53.162 69 46.745 69 39.333c0-10.477-8.523-19-19-19-10.477 0-19 8.523-19 19 0 7.411 4.275 13.828 10.48 16.959-0.246 0.258-0.479 0.528-0.698 0.809-0.339 0.436-0.26 1.064 0.176 1.403 0.182 0.142 0.398 0.211 0.613 0.21 0.298 0 0.593-0.133 0.79-0.386 0.331-0.425 0.707-0.817 1.111-1.174C45.511 57.903 47.704 58.333 50 58.333c2.296 0 4.488-0.43 6.527-1.179C56.927 57.507 57.3 57.894 57.627 58.314zM33 39.333c0-9.374 7.626-17 17-17s17 7.626 17 17-7.626 17-17 17S33 48.708 33 39.333z" fill="#ffffff" data-fill-palette-color="accent"></path><path d="M67.54 64.279c-1.467-1.484-3.483-2.236-5.993-2.237-0.081 0-0.15 0.014-0.229 0.016-0.063-0.436-0.143-0.868-0.26-1.291-0.147-0.532-0.696-0.85-1.229-0.699-0.533 0.146-0.845 0.697-0.699 1.23 0.091 0.331 0.156 0.669 0.206 1.01-5.815 1.388-6.328 8.207-6.328 10.464 0 0.528 0.41 0.964 0.937 0.999l1.803 0.114 0.035 4.37c0.004 0.549 0.451 0.992 1 0.992 0.002 0 0.005 0 0.008 0 0.552-0.004 0.996-0.456 0.992-1.009l-0.014-1.77c2.107-0.096 3.454-0.491 3.518-0.51 0.529-0.159 0.83-0.716 0.671-1.245-0.158-0.529-0.714-0.825-1.245-0.671-0.013 0.004-1.145 0.335-2.961 0.425l-0.012-1.529c-0.004-0.524-0.413-0.957-0.937-0.99l-1.768-0.112c0.167-2.91 1.233-7.793 6.512-7.793 1.983 0 3.479 0.537 4.57 1.642 2.493 2.523 2.434 7.565 2.391 11.247-0.005 0.462-0.011 0.903-0.011 1.315 0 0.552 0.448 1 1 1 0.552 0 1-0.448 1-1 0-0.405 0.005-0.837 0.01-1.291C70.555 72.921 70.62 67.396 67.54 64.279z" fill="#ffffff" data-fill-palette-color="accent"></path><path d="M49.366 35.682c-0.552 0-1 0.448-1 1v5.609c0 0.552 0.448 1 1 1h3.365c0.552 0 1-0.448 1-1 0-0.552-0.448-1-1-1h-2.365v-4.609C50.366 36.129 49.918 35.682 49.366 35.682z" fill="#ffffff" data-fill-palette-color="accent"></path><path d="M40.664 62.308c0.049-0.335 0.113-0.669 0.202-0.995 0.146-0.533-0.168-1.083-0.701-1.228-0.532-0.145-1.082 0.169-1.229 0.702-0.114 0.417-0.193 0.843-0.254 1.271-0.079-0.002-0.148-0.015-0.229-0.016-2.51 0-4.526 0.752-5.993 2.237-3.08 3.117-3.015 8.642-2.967 12.677 0.005 0.454 0.01 0.886 0.01 1.291 0 0.552 0.448 1 1 1 0.552 0 1-0.448 1-1 0-0.412-0.005-0.853-0.011-1.315-0.043-3.682-0.103-8.724 2.391-11.247 1.092-1.105 2.587-1.642 4.57-1.642 5.278 0 6.345 4.884 6.512 7.793l-1.768 0.112c-0.524 0.033-0.932 0.465-0.937 0.99l-0.012 1.529c-1.758-0.086-2.923-0.415-2.962-0.425-0.529-0.16-1.085 0.142-1.244 0.67-0.159 0.529 0.142 1.087 0.67 1.246 0.064 0.019 1.411 0.415 3.519 0.51l-0.014 1.77c-0.004 0.552 0.439 1.004 0.991 1.009 0.003 0 0.006 0 0.009 0 0.549 0 0.996-0.442 1-0.992l0.035-4.37 1.803-0.114c0.526-0.034 0.937-0.47 0.937-0.999C46.992 70.515 46.479 63.696 40.664 62.308z" fill="#ffffff" data-fill-palette-color="accent"></path><circle cx="39.4858932" cy="68.7612991" r="1.3" fill="#ffffff" data-fill-palette-color="accent"></circle><circle cx="45.5324898" cy="36.8814011" r="1.3" fill="#ffffff" data-fill-palette-color="accent"></circle><circle cx="54.2537918" cy="36.8814011" r="1.3" fill="#ffffff" data-fill-palette-color="accent"></circle><path d="M64.45 42.016v-2.795c0-2.028-1.65-3.678-3.678-3.678h-0.864c-0.533-4.926-4.714-8.774-9.779-8.774-5.065 0-9.246 3.848-9.779 8.774h-0.864c-2.028 0-3.678 1.65-3.678 3.678v2.795c0 2.028 1.65 3.678 3.678 3.677h1.806c0.552 0 1-0.448 1-1v-4.843c0-0.004-0.002-0.008-0.002-0.012v-3.23c0-4.323 3.517-7.839 7.839-7.839 4.323 0 7.839 3.517 7.839 7.839v3.23c0 0.004-0.003 0.008-0.002 0.012v4.843c0 0.001 0.001 0.002 0.001 0.004-0.004 1.066-0.308 1.881-0.932 2.489-0.798 0.776-1.954 1.055-2.731 1.155-0.358-1.154-1.423-2.001-2.694-2.001h-2.516c-1.563 0-2.833 1.271-2.834 2.833v0.447c0 1.563 1.271 2.833 2.834 2.833h2.516c1.309 0 2.402-0.896 2.726-2.103 1.058-0.111 2.804-0.485 4.081-1.72 0.805-0.777 1.288-1.766 1.466-2.937h0.889C62.8 45.693 64.45 44.043 64.45 42.016zM39.486 43.693c-0.925 0-1.678-0.753-1.678-1.677v-2.795c0-0.925 0.752-1.678 1.678-1.678h0.804v2.295c0 0.004 0.002 0.008 0.002 0.012v3.843H39.486zM52.443 49.62c0 0.46-0.374 0.833-0.833 0.833h-2.516c-0.459 0-0.833-0.374-0.834-0.833v-0.447c0-0.459 0.374-0.833 0.834-0.833h2.516c0.459 0 0.833 0.374 0.833 0.833V49.62zM62.45 39.221v2.795c0 0.925-0.752 1.678-1.678 1.677h-0.806v-3.843c0-0.004 0.003-0.008 0.002-0.012v-2.295h0.804C61.698 37.543 62.45 38.295 62.45 39.221z" fill="#ffffff" data-fill-palette-color="accent"></path><circle cx="60.5140915" cy="68.7612991" r="1.3" fill="#ffffff" data-fill-palette-color="accent"></circle></g></g></svg></g></g></svg></g><defs><mask id="1d3d4838-c3b1-4e98-ae8c-978620917744"><rect width="640" height="400" fill="white"></rect><rect width="348.05760000000004" height="90.01681600111908" fill="black" x="145.97119999999998" y="154.99159199944046" id="transform-me" transform="matrix(1,0,0,1,-122.24000000000001,-76.4)"></rect></mask></defs></svg><rect width="395.52" height="247.2" fill="none" stroke="none" visibility="hidden"></rect></g></svg></g></svg>