<svg id="visual" viewBox="0 0 960 540" width="960" height="540" xmlns="http://www.w3.org/2000/svg" xmlns:xlink="http://www.w3.org/1999/xlink" version="1.1"><rect x="0" y="0" width="960" height="540" fill="#001220"></rect><path d="M0 410L26.7 401.7C53.3 393.3 106.7 376.7 160 368.3C213.3 360 266.7 360 320 364.7C373.3 369.3 426.7 378.7 480 389.2C533.3 399.7 586.7 411.3 640 416C693.3 420.7 746.7 418.3 800 413.5C853.3 408.7 906.7 401.3 933.3 397.7L960 394L960 541L933.3 541C906.7 541 853.3 541 800 541C746.7 541 693.3 541 640 541C586.7 541 533.3 541 480 541C426.7 541 373.3 541 320 541C266.7 541 213.3 541 160 541C106.7 541 53.3 541 26.7 541L0 541Z" fill="#f7770f"></path><path d="M0 421L26.7 423.5C53.3 426 106.7 431 160 435.2C213.3 439.3 266.7 442.7 320 439.5C373.3 436.3 426.7 426.7 480 426.2C533.3 425.7 586.7 434.3 640 434.5C693.3 434.7 746.7 426.3 800 426C853.3 425.7 906.7 433.3 933.3 437.2L960 441L960 541L933.3 541C906.7 541 853.3 541 800 541C746.7 541 693.3 541 640 541C586.7 541 533.3 541 480 541C426.7 541 373.3 541 320 541C266.7 541 213.3 541 160 541C106.7 541 53.3 541 26.7 541L0 541Z" fill="#ff8c62"></path><path d="M0 481L26.7 481.2C53.3 481.3 106.7 481.7 160 480.2C213.3 478.7 266.7 475.3 320 469.2C373.3 463 426.7 454 480 453.2C533.3 452.3 586.7 459.7 640 458.2C693.3 456.7 746.7 446.3 800 448.8C853.3 451.3 906.7 466.7 933.3 474.3L960 482L960 541L933.3 541C906.7 541 853.3 541 800 541C746.7 541 693.3 541 640 541C586.7 541 533.3 541 480 541C426.7 541 373.3 541 320 541C266.7 541 213.3 541 160 541C106.7 541 53.3 541 26.7 541L0 541Z" fill="#ffa99b"></path><path d="M0 516L26.7 512.2C53.3 508.3 106.7 500.7 160 494C213.3 487.3 266.7 481.7 320 484.3C373.3 487 426.7 498 480 500.2C533.3 502.3 586.7 495.7 640 490.8C693.3 486 746.7 483 800 487.2C853.3 491.3 906.7 502.7 933.3 508.3L960 514L960 541L933.3 541C906.7 541 853.3 541 800 541C746.7 541 693.3 541 640 541C586.7 541 533.3 541 480 541C426.7 541 373.3 541 320 541C266.7 541 213.3 541 160 541C106.7 541 53.3 541 26.7 541L0 541Z" fill="#f7caca"></path></svg>